<?xml version="1.0" standalone="no"?>
<!DOCTYPE svg PUBLIC "-//W3C//DTD SVG 20010904//EN"
 "http://www.w3.org/TR/2001/REC-SVG-20010904/DTD/svg10.dtd">
<svg version="1.0" xmlns="http://www.w3.org/2000/svg"
 width="375.000000pt" height="375.000000pt" viewBox="0 0 375.000000 375.000000"
 preserveAspectRatio="xMidYMid meet">
<metadata>
Created by potrace 1.14, written by Peter Selinger 2001-2017
</metadata>
<g transform="translate(0.000000,375.000000) scale(0.100000,-0.100000)"
fill="#000000" stroke="none">
<path d="M1222 3219 c-173 -29 -353 -149 -452 -301 -194 -297 -123 -711 160
-943 30 -25 183 -116 340 -203 l284 -157 -229 -6 c-249 -7 -271 -11 -379 -67
-132 -69 -234 -201 -272 -352 -21 -84 -14 -221 15 -305 63 -178 235 -324 418
-354 48 -9 265 -11 748 -8 617 3 686 5 740 21 181 54 346 189 423 346 58 118
76 194 76 320 -1 182 -67 355 -187 486 -81 89 -119 114 -417 279 -146 81 -269
151 -274 155 -4 4 95 10 220 12 249 5 286 12 393 75 313 183 358 623 90 868
-71 65 -139 101 -235 125 -73 19 -110 20 -743 19 -366 -1 -690 -5 -719 -10z
m1451 -177 c80 -29 149 -83 196 -153 94 -141 79 -335 -38 -462 -45 -48 -136
-102 -191 -112 -19 -3 -44 -8 -55 -10 -11 -2 -183 -4 -381 -4 -335 -1 -363 -2
-384 -19 -23 -18 -23 -20 -23 -315 0 -163 -2 -297 -3 -297 -8 0 -715 396 -739
414 -167 127 -257 338 -227 531 36 229 223 414 452 443 30 4 343 7 695 7 624
-2 641 -2 698 -23z m-334 -1169 c172 -95 332 -186 355 -202 143 -98 237 -280
237 -457 0 -45 -5 -103 -12 -130 -41 -166 -186 -318 -358 -376 -65 -22 -77
-23 -700 -26 -388 -2 -659 1 -698 7 -136 21 -247 101 -306 220 -29 59 -32 74
-32 156 0 80 4 97 31 155 55 117 157 196 283 220 30 6 213 10 417 10 l363 0
20 26 c20 26 21 38 21 316 l0 289 33 -17 c17 -9 173 -95 346 -191z"/>
</g>
</svg>
