<svg xmlns="http://www.w3.org/2000/svg" viewBox="0 0 48 48">
  <g fill="currentColor">
    <path
      d="M8 20.045a2.989 2.989 0 00-2.94 2.393c-.04.195-.06.4-.06.607v20a2.993 2.993 0 003 3h32a2.99 2.99 0 003-3v-20a3.004 3.004 0 00-.512-1.68A2.99 2.99 0 0040 20.045H8zm16 2.48a10.518 10.518 0 0110.518 10.52A10.518 10.518 0 0124 43.562a10.518 10.518 0 01-10.518-10.517A10.518 10.518 0 0124 22.525zm0 1.924a8.596 8.596 0 00-8.596 8.596A8.596 8.596 0 0024 41.64a8.596 8.596 0 008.596-8.596A8.596 8.596 0 0024 24.449zm0 2.301c3.434 0 6.25 2.816 6.25 6.25s-2.816 6.25-6.25 6.25c-2.952 0-5.442-2.084-6.084-4.85h3.154A3.219 3.219 0 0024 36.25 3.228 3.228 0 0027.25 33 3.228 3.228 0 0024 29.75a3.215 3.215 0 00-2.82 1.65h-3.213c.713-2.665 3.152-4.65 6.033-4.65zM2.338 1.525c-.438 0-.96.142-.824.8.087.42 2.9 3.899 3.93 5.165-.176.29-.314.604-.383.947-.04.196-.061.4-.061.608v7a2.993 2.993 0 003 3h32a2.99 2.99 0 003-3v-7c0-.208-.02-.412-.06-.607a2.962 2.962 0 00-.383-.948c1.029-1.266 3.842-4.744 3.93-5.166.135-.657-.387-.799-.825-.799-.468.015-.816.468-1.076.758l-3.188 4.12A2.976 2.976 0 0040 6.044H8a3.03 3.03 0 00-1.17.234c-.08.034-.152.083-.228.123L3.414 2.283c-.26-.29-.608-.743-1.076-.758zM14.375 9.75a3.375 3.375 0 013.375 3.375 3.375 3.375 0 01-3.375 3.375A3.375 3.375 0 0111 13.125a3.375 3.375 0 013.375-3.375zm19.5 0a3.375 3.375 0 013.375 3.375 3.375 3.375 0 01-3.375 3.375 3.375 3.375 0 01-3.375-3.375 3.375 3.375 0 013.375-3.375z" />
  </g>
</svg>
