<?xml version="1.0" encoding="utf-8"?>
<!-- Generator: Adobe Illustrator 25.4.1, SVG Export Plug-In . SVG Version: 6.00 Build 0)  -->
<svg version="1.1" id="Layer_1" xmlns="http://www.w3.org/2000/svg" xmlns:xlink="http://www.w3.org/1999/xlink" x="0px" y="0px"
	 viewBox="0 0 500 500" style="enable-background:new 0 0 500 500;" xml:space="preserve">
<style type="text/css">
	.st0{fill:#323232;}
</style>
<g>
	<g>
		<path class="st0" d="M340.5,31.5l128,128v181l-128,128h-181l-128-128v-181l128-128H340.5 M340.5,0h-181c-8.4,0-16.4,3.3-22.3,9.2
			l-128,128C3.3,143.1,0,151.1,0,159.5v181c0,8.4,3.3,16.4,9.2,22.3l128,128c5.9,5.9,13.9,9.2,22.3,9.2h181c8.4,0,16.4-3.3,22.3-9.2
			l128-128c5.9-5.9,9.2-13.9,9.2-22.3v-181c0-8.4-3.3-16.4-9.2-22.3l-128-128C356.9,3.3,348.9,0,340.5,0L340.5,0z"/>
		<g>
			<g>
				<path class="st0" d="M250,65.7C148.2,65.7,65.7,148.2,65.7,250S148.2,434.3,250,434.3S434.3,351.8,434.3,250
					S351.8,65.7,250,65.7z M307.1,161c12.7,0,23,22.7,23,50.7s-10.3,50.7-23,50.7s-23-22.7-23-50.7S294.4,161,307.1,161z M193.3,161
					c12.7,0,23,22.7,23,50.7s-10.3,50.7-23,50.7s-23-22.7-23-50.7S180.6,161,193.3,161z M326.5,377.7l-76.2-29.6l-76.2,29.6
					l-11.7-30.1l43.3-16.8l-42.7-16.6l11.7-30.1l75.6,29.4l75.6-29.4l11.7,30.1l-42.7,16.6l43.3,16.8L326.5,377.7z"/>
			</g>
		</g>
	</g>
</g>
</svg>
