<?xml version="1.0" encoding="utf-8"?>
<!-- Generator: Adobe Illustrator 25.4.1, SVG Export Plug-In . SVG Version: 6.00 Build 0)  -->
<svg version="1.1" id="Layer_1" xmlns="http://www.w3.org/2000/svg" xmlns:xlink="http://www.w3.org/1999/xlink" x="0px" y="0px"
	 viewBox="0 0 500 500" style="enable-background:new 0 0 500 500;" xml:space="preserve">
<style type="text/css">
	.st0{fill:#FFFFFF;}
	.st1{fill:#808185;}
	.st2{fill:#333333;}
</style>
<g>
	<path class="st0" d="M248.9,53.7c6.9,0,13.9,3.4,17.9,10.3L471,416.8c7.6,13.1-1.8,29.5-16.9,29.5H46c-15,0-24.5-16.2-17.1-29.3
		L231,64.2C234.9,57.2,241.9,53.7,248.9,53.7 M248.9,27.4c-8.1,0-16,2.1-23,6c-7.4,4.2-13.6,10.3-17.9,17.8L6.1,403.9
		c0,0,0,0.1,0,0.1c-4.1,7.3-6.2,15.4-6,23.7c0.2,7.7,2.3,15.4,6.3,22.1c3.9,6.7,9.5,12.4,16.1,16.4c7.1,4.2,15.2,6.5,23.6,6.5h408
		c8.4,0,16.6-2.3,23.7-6.6c6.7-4,12.2-9.7,16.1-16.5c3.9-6.8,6-14.5,6.1-22.3c0.1-8.3-2-16.5-6.3-23.7L289.6,50.8c0,0,0-0.1,0-0.1
		c-4.3-7.4-10.5-13.4-17.9-17.5C264.8,29.4,256.9,27.4,248.9,27.4L248.9,27.4z"/>
	<path class="st1" d="M249.9,133.3L249.9,133.3c-42.6,0-77.2,34.6-77.2,77.2v57.3c0,13.3,10.8,24.1,24.1,24.1h106.1
		c13.3,0,24.1-10.8,24.1-24.1v-57.3C327,167.9,292.5,133.3,249.9,133.3z M297.8,262.7h-95.8v-52.2c0-26.4,21.5-47.9,47.9-47.9
		s47.9,21.5,47.9,47.9V262.7z"/>
	<path class="st2" d="M327,432.1H172.7c-13.3,0-24.1-10.8-24.1-24.1V265.9c0-13.3,10.8-24.1,24.1-24.1H327
		c13.3,0,24.1,10.8,24.1,24.1v142.1C351.2,421.3,340.4,432.1,327,432.1z"/>
	<path class="st2" d="M215.5,191.5l-77.6-52.7c-7.1-4.8-9-14.6-4.1-21.7l0,0c4.8-7.1,14.6-9,21.7-4.1l77.6,52.7
		c7.1,4.8,9,14.6,4.1,21.7l0,0C232.4,194.5,222.7,196.4,215.5,191.5z"/>
	<path class="st2" d="M286.1,191.5l77.6-52.7c7.1-4.8,9-14.6,4.1-21.7v0c-4.8-7.1-14.6-9-21.7-4.1l-77.6,52.7
		c-7.1,4.8-9,14.6-4.1,21.7l0,0C269.3,194.5,279,196.4,286.1,191.5z"/>
</g>
</svg>
