<?xml version="1.0" encoding="utf-8"?>
<!-- Generator: Adobe Illustrator 25.4.1, SVG Export Plug-In . SVG Version: 6.00 Build 0)  -->
<svg version="1.1" id="Layer_1" xmlns="http://www.w3.org/2000/svg" xmlns:xlink="http://www.w3.org/1999/xlink" x="0px" y="0px"
	 viewBox="0 0 500 500" style="enable-background:new 0 0 500 500;" xml:space="preserve">
<style type="text/css">
	.st0{fill:#333333;}
</style>
<g>
	<g>
		<g>
			<path class="st0" d="M275.2,343.1l79.4,11.9c4,0.6,7,4,7,8.1l0.4,29.4c0.5,33.1-29.2,58.6-61.9,53.1h0
				c-31.1-5.2-50.9-36.2-42.4-66.7l8.3-29.9C267.2,345.1,271.1,342.5,275.2,343.1z"/>
		</g>
		<g>
			<path class="st0" d="M357.9,336.9c5.4,0.8,10.7-2.2,12.8-7.3c10.6-25.2,40.3-99.9,37.4-139.1c-3.6-47.7-14.8-126.9-63-126.9
				c-44.6,0-63.1,52.4-65.6,60.2c-0.2,0.7-0.4,1.3-0.6,2c-2.6,7.7-18.3,59-8.3,123.2c2,24,2.8,51.4,3.1,65.9
				c0.1,5.9,4.5,10.9,10.4,11.7L357.9,336.9z"/>
		</g>
	</g>
	<g>
		<path class="st0" d="M250,26.8c123.3,0,223.2,99.9,223.2,223.2S373.3,473.2,250,473.2S26.8,373.3,26.8,250S126.7,26.8,250,26.8
			 M250,0c-33.7,0-66.5,6.6-97.3,19.7c-29.8,12.6-56.5,30.6-79.5,53.6s-41,49.7-53.6,79.5C6.6,183.5,0,216.3,0,250
			c0,33.7,6.6,66.5,19.7,97.3c12.6,29.8,30.6,56.5,53.6,79.5c23,23,49.7,41,79.5,53.6c30.8,13,63.6,19.7,97.3,19.7
			s66.5-6.6,97.3-19.7c29.8-12.6,56.5-30.6,79.5-53.6c23-23,41-49.7,53.6-79.5c13-30.8,19.7-63.6,19.7-97.3
			c0-33.7-6.6-66.5-19.7-97.3c-12.6-29.8-30.6-56.5-53.6-79.5s-49.7-41-79.5-53.6C316.5,6.6,283.7,0,250,0L250,0z"/>
	</g>
	<g>
		<g>
			<path class="st0" d="M136.1,310.6l79.6-9.8c4-0.5,7.8,2,8.9,5.9l8.3,28.3c9.3,31.8-12.4,64.3-45.4,67.8h0
				c-31.4,3.3-58.8-21.3-58.8-52.8v-31.1C128.9,314.6,132,311.1,136.1,310.6z"/>
		</g>
		<g>
			<path class="st0" d="M135,289.7c-5.4,0.8-10.7-2.2-12.8-7.3c-10.6-25.2-40.3-99.9-37.4-139.1c3.6-47.7,14.8-126.9,63-126.9
				c44.6,0,63.1,52.4,65.6,60.2c0.2,0.7,0.4,1.3,0.6,2c2.6,7.7,18.3,59,8.3,123.2c-2,24-2.8,51.4-3.1,65.9
				c-0.1,5.9-4.5,10.9-10.4,11.7L135,289.7z"/>
		</g>
	</g>
	<g>
		
			<rect x="6.8" y="239.6" transform="matrix(0.7064 -0.7078 0.7078 0.7064 -105.5236 251.633)" class="st0" width="487.6" height="26.8"/>
	</g>
</g>
</svg>
