<?xml version="1.0" encoding="utf-8"?>
<!-- Generator: Adobe Illustrator 25.4.1, SVG Export Plug-In . SVG Version: 6.00 Build 0)  -->
<svg version="1.1" id="Layer_1" xmlns="http://www.w3.org/2000/svg" xmlns:xlink="http://www.w3.org/1999/xlink" x="0px" y="0px"
	 viewBox="0 0 500 500" style="enable-background:new 0 0 500 500;" xml:space="preserve">
<style type="text/css">
	.st0{fill:#323232;}
</style>
<g>
	<path class="st0" d="M423.5,29.9c3.2,0,6.5,1.2,9,3.7l33.9,33.9c5,5,5,13,0,17.9L310.8,241c-5,5-5,13,0,17.9l155.6,155.6
		c5,5,5,13,0,17.9l-33.9,33.9c-2.5,2.5-5.7,3.7-9,3.7c-3.2,0-6.5-1.2-9-3.7L259,310.8c-2.5-2.5-5.7-3.7-9-3.7c-3.2,0-6.5,1.2-9,3.7
		L85.5,466.4c-2.5,2.5-5.7,3.7-9,3.7s-6.5-1.2-9-3.7l-33.9-33.9c-5-5-5-13,0-17.9L189.2,259c5-5,5-13,0-17.9L33.6,85.5
		c-5-5-5-13,0-17.9l33.9-33.9c2.5-2.5,5.7-3.7,9-3.7s6.5,1.2,9,3.7L241,189.2c2.5,2.5,5.7,3.7,9,3.7c3.2,0,6.5-1.2,9-3.7L414.5,33.6
		C417,31.1,420.3,29.9,423.5,29.9 M423.5,0c-11.4,0-22.1,4.4-30.1,12.5L250,155.9L106.6,12.5C98.6,4.4,87.9,0,76.5,0
		C65.1,0,54.4,4.4,46.4,12.5L12.5,46.4C4.4,54.4,0,65.1,0,76.5c0,11.4,4.4,22.1,12.5,30.1L155.9,250L12.5,393.4
		c-16.6,16.6-16.6,43.6,0,60.2l33.9,33.9c8,8,18.7,12.5,30.1,12.5s22.1-4.4,30.1-12.5L250,344.1l143.4,143.4
		c8,8,18.7,12.5,30.1,12.5c11.4,0,22.1-4.4,30.1-12.5l33.9-33.9c16.6-16.6,16.6-43.6,0-60.2L344.1,250l143.4-143.4
		c8-8,12.5-18.7,12.5-30.1c0-11.4-4.4-22.1-12.5-30.1l-33.9-33.9C445.6,4.4,434.9,0,423.5,0L423.5,0z"/>
	<path class="st0" d="M431.9,259.2H68.3c-17.4,0-31.6-14.1-31.6-31.6v-20.2c0-57.5,46.6-104.2,104.2-104.2h218.4
		c57.5,0,104.2,46.6,104.2,104.2v20.2C463.4,245,449.3,259.2,431.9,259.2z"/>
	<g>
		<path class="st0" d="M339,162.8H156.6c-9.4,0-18,5.4-22.1,13.9l-62,128.1c-3.7,7.6-5.6,16-5.6,24.4v68.3c0,13.6,11,24.5,24.5,24.5
			h317.2c13.6,0,24.5-11,24.5-24.5v-67.6c0-9-2.1-17.8-6.2-25.7L360.8,176C356.6,167.9,348.1,162.8,339,162.8z"/>
		<g>
			<path class="st0" d="M248.8,199.9c-52.5,0-95.1,22-95.1,49.1c0,27.1,42.6,49.1,95.1,49.1s95.1-22,95.1-49.1
				C343.9,221.9,301.3,199.9,248.8,199.9z M248.8,273.5c-26.3,0-47.5-11-47.5-24.5c0-13.5,21.3-24.5,47.5-24.5s47.5,11,47.5,24.5
				C296.3,262.5,275,273.5,248.8,273.5z"/>
		</g>
	</g>
	<g>
		<path class="st0" d="M259,310.8c-2.5-2.5-5.7-3.7-9-3.7c-3.2,0-6.5,1.2-9,3.7L114,437.9l43-0.7l93.1-93.1l90.2,90.2l41.6-0.7
			L259,310.8z"/>
		<path class="st0" d="M143.2,91.3l97.9,97.9c2.5,2.5,5.7,3.7,9,3.7c3.2,0,6.5-1.2,9-3.7l104-104l-35.6-6.7L250,155.9L160,65.8
			L143.2,91.3z"/>
	</g>
</g>
</svg>
