<?xml version="1.0" encoding="UTF-8"?>
<svg id="Layer_1" xmlns="http://www.w3.org/2000/svg" version="1.1" viewBox="0 0 500 500">
  <!-- Generator: Adobe Illustrator 29.4.0, SVG Export Plug-In . SVG Version: 2.1.0 Build 152)  -->
  <defs>
    <style>
      .st0 {
        fill: #fff;
      }

      .st1 {
        fill: #323232;
      }
    </style>
  </defs>
  <path class="st0" d="M250,26.8c123.3,0,223.2,99.9,223.2,223.2s-99.9,223.2-223.2,223.2S26.8,373.3,26.8,250,126.7,26.8,250,26.8M250,0c-33.7,0-66.5,6.6-97.3,19.7-29.8,12.6-56.5,30.6-79.5,53.6s-41,49.7-53.6,79.5C6.6,183.5,0,216.3,0,250s6.6,66.5,19.7,97.3c12.6,29.8,30.6,56.5,53.6,79.5s49.7,41,79.5,53.6c30.8,13,63.6,19.7,97.3,19.7s66.5-6.6,97.3-19.7c29.8-12.6,56.5-30.6,79.5-53.6s41-49.7,53.6-79.5c13-30.8,19.7-63.6,19.7-97.3s-6.6-66.5-19.7-97.3c-12.6-29.8-30.6-56.5-53.6-79.5s-49.7-41-79.5-53.6C316.5,6.6,283.7,0,250,0h0Z"/>
  <g>
    <path class="st1" d="M372.58,135.49h0c-.78-.75-1.66-1.37-2.62-1.85l-107.29-53.84c-4.86-2.44-10.58-2.44-15.43,0l-107.29,53.84c-.96.48-1.85,1.11-2.62,1.85h0c-2.09,2.01-3.28,4.79-3.28,7.7l-.21,138.94c0,.23,0,.45.02.68,2.98,54.02,31.27,98.73,78.53,124.41,5.56,3.02,17.55,8.68,28.09,12.41,9.37,3.32,19.61,3.32,28.97,0,10.54-3.73,22.52-9.39,28.09-12.41,47.27-25.68,75.55-70.39,78.53-124.41.01-.23.02-.45.02-.68l-.21-138.94c0-2.91-1.19-5.69-3.28-7.7ZM346.11,254.7c-9.69,12-36.29,29.2-50.63,35.31-13.62,5.8-27.22,8.45-40.53,8.45-13.31,0-26.91-2.65-40.53-8.45-14.34-6.1-40.94-23.3-50.63-35.31-3.51-4.35-.83-8.92,2.37-12.4,17.65-19.2,54.5-39.69,80.67-41.49,2.67-.18,5.39-.22,8.12-.15,2.74-.07,5.45-.03,8.12.15,26.16,1.8,63.01,22.29,80.67,41.49,3.2,3.48,5.88,8.04,2.37,12.4Z"/>
    <circle class="st1" cx="254.96" cy="249.55" r="29.28"/>
  </g>
  <path class="st0" d="M386.51,355.63L132.12,114.81c-5.37-5.08-13.87-4.85-18.95.52-5.08,5.37-4.85,13.87.52,18.95l254.39,240.82c2.5,2.37,5.77,3.67,9.22,3.67,3.67,0,7.22-1.53,9.74-4.19,5.08-5.37,4.85-13.87-.52-18.95Z"/>
</svg>