<?xml version="1.0" encoding="utf-8"?>
<!-- Generator: Adobe Illustrator 25.4.1, SVG Export Plug-In . SVG Version: 6.00 Build 0)  -->
<svg version="1.1" id="Layer_1" xmlns="http://www.w3.org/2000/svg" xmlns:xlink="http://www.w3.org/1999/xlink" x="0px" y="0px"
	 viewBox="0 0 500 500" style="enable-background:new 0 0 500 500;" xml:space="preserve">
<style type="text/css">
	.st0{fill:#343132;}
</style>
<g>
	<path class="st0" d="M250,28.3c122.4,0,221.7,99.2,221.7,221.7S372.4,471.7,250,471.7S28.3,372.4,28.3,250S127.6,28.3,250,28.3
		 M250,0c-33.7,0-66.5,6.6-97.3,19.7c-29.8,12.6-56.5,30.6-79.5,53.6c-23,23-41,49.7-53.6,79.5C6.6,183.5,0,216.3,0,250
		s6.6,66.5,19.7,97.3c12.6,29.8,30.6,56.5,53.6,79.5c23,23,49.7,41,79.5,53.6c30.8,13,63.6,19.7,97.3,19.7s66.5-6.6,97.3-19.7
		c29.8-12.6,56.5-30.6,79.5-53.6c23-23,41-49.7,53.6-79.5c13-30.8,19.7-63.6,19.7-97.3s-6.6-66.5-19.7-97.3
		c-12.6-29.8-30.6-56.5-53.6-79.5c-23-23-49.7-41-79.5-53.6C316.5,6.6,283.7,0,250,0L250,0z"/>
	<path class="st0" d="M250,76.3c-99.5,0-179.9,79.7-180.8,179.2c-0.7,74.1,43.2,138,106.5,166.6c9.7,4.4,20.9-0.8,24-10.9l30-100.2
		c1.7-5.5-0.5-11.5-5.3-14.7c-13.1-8.6-21.6-23.6-21.1-40.6c0.8-24.9,21.5-45,46.5-45.1c25.9-0.1,46.8,20.8,46.8,46.7
		c0,17.2-9.3,32.2-23.1,40.3c-5.4,3.2-7.9,9.7-5.9,15.6l33.4,98.4c3.3,9.8,14.4,14.6,23.9,10.3c62.5-28.5,105.9-91.5,105.9-164.6
		C430.8,157.3,349.9,76.3,250,76.3z"/>
</g>
</svg>
