<?xml version="1.0" encoding="UTF-8"?>
<svg id="Layer_1" xmlns="http://www.w3.org/2000/svg" version="1.1" viewBox="0 0 500 500">
  <!-- Generator: Adobe Illustrator 29.4.0, SVG Export Plug-In . SVG Version: 2.1.0 Build 152)  -->
  <defs>
    <style>
      .st0 {
        fill: #fff;
      }

      .st1 {
        fill: #323232;
      }
    </style>
  </defs>
  <path class="st0" d="M340.5,31.5l128,128v181l-128,128h-181L31.5,340.5v-181L159.5,31.5h181M340.5,0h-181c-8.4,0-16.4,3.3-22.3,9.2L9.2,137.2c-5.9,5.9-9.2,13.9-9.2,22.3v181c0,8.4,3.3,16.4,9.2,22.3l128,128c5.9,5.9,13.9,9.2,22.3,9.2h181c8.4,0,16.4-3.3,22.3-9.2l128-128c5.9-5.9,9.2-13.9,9.2-22.3v-181c0-8.4-3.3-16.4-9.2-22.3L362.8,9.2c-5.9-5.9-13.9-9.2-22.3-9.2h0Z"/>
  <path class="st1" d="M434.3,250c0,101.79-82.51,184.3-184.3,184.3s-184.3-82.51-184.3-184.3S148.21,65.7,250,65.7s184.3,82.51,184.3,184.3ZM188.29,151.29c-20.94,3.97-19.17,52.66-14.69,67.85,6.01,20.38,25.41,24.56,33.73,3.57,6.17-15.57,8.52-76.64-19.04-71.42ZM303.9,151.25c-11.01,2.24-16.1,21.17-16.98,30.65-1.41,15.18-.8,55.62,21.32,54.74,22.9-.91,20.63-53.44,16.22-68.58-2.68-9.21-9.49-19.07-20.56-16.81ZM133.67,270.24c-6.3,6.29-.64,21.91,2,29.59,32.95,96.1,166.5,110.15,218.02,23.3,6.21-10.47,24.46-46.99,8.54-53.46-16.27-6.61-17.12,17.34-20.7,27.04-28,75.8-137.16,83.26-176.88,12.17-7.26-12.99-7.08-22.23-11.58-34.36-2.88-7.75-13.53-10.14-19.38-4.28Z"/>
</svg>