<?xml version="1.0" encoding="UTF-8"?>
<svg id="Layer_1" xmlns="http://www.w3.org/2000/svg" version="1.1" viewBox="0 0 500 500">
  <!-- Generator: Adobe Illustrator 29.4.0, SVG Export Plug-In . SVG Version: 2.1.0 Build 152)  -->
  <defs>
    <style>
      .st0 {
        fill: #fff;
      }

      .st1 {
        fill: #323232;
      }
    </style>
  </defs>
  <path class="st0" d="M250,26.8c123.3,0,223.2,99.9,223.2,223.2s-99.9,223.2-223.2,223.2S26.8,373.3,26.8,250,126.7,26.8,250,26.8M250,0c-33.7,0-66.5,6.6-97.3,19.7-29.8,12.6-56.5,30.6-79.5,53.6s-41,49.7-53.6,79.5C6.6,183.5,0,216.3,0,250s6.6,66.5,19.7,97.3c12.6,29.8,30.6,56.5,53.6,79.5s49.7,41,79.5,53.6c30.8,13,63.6,19.7,97.3,19.7s66.5-6.6,97.3-19.7c29.8-12.6,56.5-30.6,79.5-53.6s41-49.7,53.6-79.5c13-30.8,19.7-63.6,19.7-97.3s-6.6-66.5-19.7-97.3c-12.6-29.8-30.6-56.5-53.6-79.5s-49.7-41-79.5-53.6C316.5,6.6,283.7,0,250,0h0Z"/>
  <g>
    <path class="st1" d="M307.8,310.98l-114.87-100.9-114.63,97.33c24.01,71.82,91.8,123.58,171.7,123.58,99.96,0,181-81.04,181-181,0-12.69-1.31-25.07-3.8-37.02l-119.4,98Z"/>
    <path class="st1" d="M193.11,188.94l115.05,101.05,114.62-94.08c-23-73.54-91.65-126.91-172.78-126.91-99.96,0-181,81.04-181,181,0,13.91,1.57,27.45,4.55,40.46l119.56-101.52Z"/>
  </g>
  <circle class="st0" cx="78.06" cy="300.49" r="27.06"/>
  <circle class="st0" cx="193.02" cy="199.51" r="27.06"/>
  <circle class="st0" cx="307.98" cy="300.49" r="27.06"/>
  <circle class="st0" cx="422.94" cy="206.9" r="27.06"/>
</svg>